{"asset":{"version":"2.0","generator":"Blockbench 4.6.1 glTF exporter"},"scenes":[{"nodes":[24],"name":"blockbench_export"}],"scene":0,"nodes":[{"translation":[0,-0.1875,0],"name":"Leg Chassis","mesh":0},{"rotation":[-0.3535533905932738,0.3535533905932738,0.14644660940672624,0.8535533905932737],"name":"Leg 1","mesh":1},{"rotation":[0.18023995550173696,0.37533027751786524,-0.0746578340503426,0.9061274463528878],"name":"Leg 2","mesh":2},{"name":"BottomFrontLeftLeg","children":[2]},{"translation":[-0.1875,-0.125,-0.1875],"name":"FrontLeftLeg","children":[1,3]},{"rotation":[-0.3535533905932738,-0.3535533905932738,-0.14644660940672624,0.8535533905932737],"name":"Leg 1","mesh":3},{"rotation":[0.18023995550173696,-0.37533027751786524,0.0746578340503426,0.9061274463528878],"name":"Leg 2","mesh":4},{"name":"BottomFrontRightLeg","children":[6]},{"translation":[0.1875,-0.125,-0.1875],"name":"FrontRightLeg","children":[5,7]},{"rotation":[-0.3535533905932738,0.3535533905932738,0.14644660940672624,0.8535533905932737],"name":"Leg 1","mesh":5},{"rotation":[0.18023995550173696,0.37533027751786524,-0.0746578340503426,0.9061274463528878],"name":"Leg 2","mesh":6},{"name":"BottomBackRightLeg","children":[10]},{"rotation":[6.123233995736766e-17,1,6.123233995736766e-17,3.749399456654644e-33],"translation":[0.1875,-0.125,0.1875],"name":"BackRightLeg","children":[9,11]},{"rotation":[-0.3535533905932738,-0.3535533905932738,-0.14644660940672624,0.8535533905932737],"name":"Leg 1","mesh":7},{"rotation":[0.18023995550173696,-0.37533027751786524,0.0746578340503426,0.9061274463528878],"name":"Leg 2","mesh":8},{"name":"BottomBackLeftLeg","children":[14]},{"rotation":[6.123233995736766e-17,1,6.123233995736766e-17,3.749399456654644e-33],"translation":[-0.1875,-0.125,0.1875],"name":"BackLeftLeg","children":[13,15]},{"name":"Gun Chassis","mesh":9},{"name":"Barrel","mesh":10},{"translation":[0,0.21875,-0.25],"name":"Barrel","children":[18]},{"name":"Antenne","mesh":11},{"translation":[0,0.4375,0.125],"name":"Antenne","children":[20]},{"name":"GunChassis","children":[17,19,21]},{"translation":[0,0.25,0],"name":"LegChassis","children":[0,4,8,12,16,22]},{"children":[23]}],"bufferViews":[{"buffer":0,"byteOffset":0,"byteLength":960,"target":34962,"byteStride":12},{"buffer":0,"byteOffset":960,"byteLength":960,"target":34962,"byteStride":12},{"buffer":0,"byteOffset":1920,"byteLength":640,"target":34962,"byteStride":8},{"buffer":0,"byteOffset":2560,"byteLength":192,"target":34963},{"buffer":0,"byteOffset":2752,"byteLength":288,"target":34962,"byteStride":12},{"buffer":0,"byteOffset":3040,"byteLength":288,"target":34962,"byteStride":12},{"buffer":0,"byteOffset":3328,"byteLength":192,"target":34962,"byteStride":8},{"buffer":0,"byteOffset":3520,"byteLength":72,"target":34963},{"buffer":0,"byteOffset":3592,"byteLength":288,"target":34962,"byteStride":12},{"buffer":0,"byteOffset":3880,"byteLength":288,"target":34962,"byteStride":12},{"buffer":0,"byteOffset":4168,"byteLength":192,"target":34962,"byteStride":8},{"buffer":0,"byteOffset":4360,"byteLength":72,"target":34963},{"buffer":0,"byteOffset":4432,"byteLength":288,"target":34962,"byteStride":12},{"buffer":0,"byteOffset":4720,"byteLength":288,"target":34962,"byteStride":12},{"buffer":0,"byteOffset":5008,"byteLength":192,"target":34962,"byteStride":8},{"buffer":0,"byteOffset":5200,"byteLength":72,"target":34963},{"buffer":0,"byteOffset":5272,"byteLength":288,"target":34962,"byteStride":12},{"buffer":0,"byteOffset":5560,"byteLength":288,"target":34962,"byteStride":12},{"buffer":0,"byteOffset":5848,"byteLength":192,"target":34962,"byteStride":8},{"buffer":0,"byteOffset":6040,"byteLength":72,"target":34963},{"buffer":0,"byteOffset":6112,"byteLength":288,"target":34962,"byteStride":12},{"buffer":0,"byteOffset":6400,"byteLength":288,"target":34962,"byteStride":12},{"buffer":0,"byteOffset":6688,"byteLength":192,"target":34962,"byteStride":8},{"buffer":0,"byteOffset":6880,"byteLength":72,"target":34963},{"buffer":0,"byteOffset":6952,"byteLength":288,"target":34962,"byteStride":12},{"buffer":0,"byteOffset":7240,"byteLength":288,"target":34962,"byteStride":12},{"buffer":0,"byteOffset":7528,"byteLength":192,"target":34962,"byteStride":8},{"buffer":0,"byteOffset":7720,"byteLength":72,"target":34963},{"buffer":0,"byteOffset":7792,"byteLength":288,"target":34962,"byteStride":12},{"buffer":0,"byteOffset":8080,"byteLength":288,"target":34962,"byteStride":12},{"buffer":0,"byteOffset":8368,"byteLength":192,"target":34962,"byteStride":8},{"buffer":0,"byteOffset":8560,"byteLength":72,"target":34963},{"buffer":0,"byteOffset":8632,"byteLength":288,"target":34962,"byteStride":12},{"buffer":0,"byteOffset":8920,"byteLength":288,"target":34962,"byteStride":12},{"buffer":0,"byteOffset":9208,"byteLength":192,"target":34962,"byteStride":8},{"buffer":0,"byteOffset":9400,"byteLength":72,"target":34963},{"buffer":0,"byteOffset":9472,"byteLength":960,"target":34962,"byteStride":12},{"buffer":0,"byteOffset":10432,"byteLength":960,"target":34962,"byteStride":12},{"buffer":0,"byteOffset":11392,"byteLength":640,"target":34962,"byteStride":8},{"buffer":0,"byteOffset":12032,"byteLength":192,"target":34963},{"buffer":0,"byteOffset":12224,"byteLength":288,"target":34962,"byteStride":12},{"buffer":0,"byteOffset":12512,"byteLength":288,"target":34962,"byteStride":12},{"buffer":0,"byteOffset":12800,"byteLength":192,"target":34962,"byteStride":8},{"buffer":0,"byteOffset":12992,"byteLength":72,"target":34963},{"buffer":0,"byteOffset":13064,"byteLength":288,"target":34962,"byteStride":12},{"buffer":0,"byteOffset":13352,"byteLength":288,"target":34962,"byteStride":12},{"buffer":0,"byteOffset":13640,"byteLength":192,"target":34962,"byteStride":8},{"buffer":0,"byteOffset":13832,"byteLength":72,"target":34963},{"buffer":0,"byteOffset":13904,"byteLength":40},{"buffer":0,"byteOffset":13944,"byteLength":160},{"buffer":0,"byteOffset":14104,"byteLength":40},{"buffer":0,"byteOffset":14144,"byteLength":120},{"buffer":0,"byteOffset":14264,"byteLength":160},{"buffer":0,"byteOffset":14424,"byteLength":480},{"buffer":0,"byteOffset":14904,"byteLength":160},{"buffer":0,"byteOffset":15064,"byteLength":640},{"buffer":0,"byteOffset":15704,"byteLength":160},{"buffer":0,"byteOffset":15864,"byteLength":640},{"buffer":0,"byteOffset":16504,"byteLength":160},{"buffer":0,"byteOffset":16664,"byteLength":640},{"buffer":0,"byteOffset":17304,"byteLength":160},{"buffer":0,"byteOffset":17464,"byteLength":640}],"buffers":[{"byteLength":18104,"uri":"data:application/octet-stream;base64,"}],"accessors":[{"bufferView":0,"componentType":5126,"count":80,"max":[0.28125,0.1875,0.28125],"min":[-0.28125,0,-0.28125],"type":"VEC3"},{"bufferView":1,"componentType":5126,"count":80,"max":[1,1,1],"min":[-1,-1,-1],"type":"VEC3"},{"bufferView":2,"componentType":5126,"count":80,"max":[0.625,0.375],"min":[0.1875,0],"type":"VEC2"},{"bufferView":3,"componentType":5123,"count":96,"max":[79],"min":[0],"type":"SCALAR"},{"bufferView":4,"componentType":5126,"count":24,"max":[0.03125,0.21875,0.03125],"min":[-0.03125,-0.03125,-0.03125],"type":"VEC3"},{"bufferView":5,"componentType":5126,"count":24,"max":[1,1,1],"min":[-1,-1,-1],"type":"VEC3"},{"bufferView":6,"componentType":5126,"count":24,"max":[0.25,1],"min":[0,0.6875],"type":"VEC2"},{"bufferView":7,"componentType":5123,"count":36,"max":[23],"min":[0],"type":"SCALAR"},{"bufferView":8,"componentType":5126,"count":24,"max":[0.0625,0.140625,-0.1875],"min":[-0.0625,-0.234375,-0.25],"type":"VEC3"},{"bufferView":9,"componentType":5126,"count":24,"max":[1,1,1],"min":[-1,-1,-1],"type":"VEC3"},{"bufferView":10,"componentType":5126,"count":24,"max":[0.375,0.6875],"min":[0,0.25],"type":"VEC2"},{"bufferView":11,"componentType":5123,"count":36,"max":[23],"min":[0],"type":"SCALAR"},{"bufferView":12,"componentType":5126,"count":24,"max":[0.03125,0.21875,0.03125],"min":[-0.03125,-0.03125,-0.03125],"type":"VEC3"},{"bufferView":13,"componentType":5126,"count":24,"max":[1,1,1],"min":[-1,-1,-1],"type":"VEC3"},{"bufferView":14,"componentType":5126,"count":24,"max":[0.25,1],"min":[0,0.6875],"type":"VEC2"},{"bufferView":15,"componentType":5123,"count":36,"max":[23],"min":[0],"type":"SCALAR"},{"bufferView":16,"componentType":5126,"count":24,"max":[0.0625,0.140625,-0.1875],"min":[-0.0625,-0.234375,-0.25],"type":"VEC3"},{"bufferView":17,"componentType":5126,"count":24,"max":[1,1,1],"min":[-1,-1,-1],"type":"VEC3"},{"bufferView":18,"componentType":5126,"count":24,"max":[0.375,0.6875],"min":[0,0.25],"type":"VEC2"},{"bufferView":19,"componentType":5123,"count":36,"max":[23],"min":[0],"type":"SCALAR"},{"bufferView":20,"componentType":5126,"count":24,"max":[0.03125,0.21875,0.03125],"min":[-0.03125,-0.03125,-0.03125],"type":"VEC3"},{"bufferView":21,"componentType":5126,"count":24,"max":[1,1,1],"min":[-1,-1,-1],"type":"VEC3"},{"bufferView":22,"componentType":5126,"count":24,"max":[0.25,1],"min":[0,0.6875],"type":"VEC2"},{"bufferView":23,"componentType":5123,"count":36,"max":[23],"min":[0],"type":"SCALAR"},{"bufferView":24,"componentType":5126,"count":24,"max":[0.0625,0.140625,-0.1875],"min":[-0.0625,-0.234375,-0.25],"type":"VEC3"},{"bufferView":25,"componentType":5126,"count":24,"max":[1,1,1],"min":[-1,-1,-1],"type":"VEC3"},{"bufferView":26,"componentType":5126,"count":24,"max":[0.375,0.6875],"min":[0,0.25],"type":"VEC2"},{"bufferView":27,"componentType":5123,"count":36,"max":[23],"min":[0],"type":"SCALAR"},{"bufferView":28,"componentType":5126,"count":24,"max":[0.03125,0.21875,0.03125],"min":[-0.03125,-0.03125,-0.03125],"type":"VEC3"},{"bufferView":29,"componentType":5126,"count":24,"max":[1,1,1],"min":[-1,-1,-1],"type":"VEC3"},{"bufferView":30,"componentType":5126,"count":24,"max":[0.25,1],"min":[0,0.6875],"type":"VEC2"},{"bufferView":31,"componentType":5123,"count":36,"max":[23],"min":[0],"type":"SCALAR"},{"bufferView":32,"componentType":5126,"count":24,"max":[0.0625,0.140625,-0.1875],"min":[-0.0625,-0.234375,-0.25],"type":"VEC3"},{"bufferView":33,"componentType":5126,"count":24,"max":[1,1,1],"min":[-1,-1,-1],"type":"VEC3"},{"bufferView":34,"componentType":5126,"count":24,"max":[0.375,0.6875],"min":[0,0.25],"type":"VEC2"},{"bufferView":35,"componentType":5123,"count":36,"max":[23],"min":[0],"type":"SCALAR"},{"bufferView":36,"componentType":5126,"count":80,"max":[0.25,0.4375,0.25],"min":[-0.25,0,-0.25],"type":"VEC3"},{"bufferView":37,"componentType":5126,"count":80,"max":[1,1,1],"min":[-1,-1,-1],"type":"VEC3"},{"bufferView":38,"componentType":5126,"count":80,"max":[1,0.625],"min":[0.625,0],"type":"VEC2"},{"bufferView":39,"componentType":5123,"count":96,"max":[79],"min":[0],"type":"SCALAR"},{"bufferView":40,"componentType":5126,"count":24,"max":[0.09375,0.09375,0],"min":[-0.09375,-0.09375,-0.25],"type":"VEC3"},{"bufferView":41,"componentType":5126,"count":24,"max":[1,1,1],"min":[-1,-1,-1],"type":"VEC3"},{"bufferView":42,"componentType":5126,"count":24,"max":[1,1],"min":[0.375,0.5625],"type":"VEC2"},{"bufferView":43,"componentType":5123,"count":36,"max":[23],"min":[0],"type":"SCALAR"},{"bufferView":44,"componentType":5126,"count":24,"max":[0.03125,0.375,0.03125],"min":[-0.03125,0,-0.03125],"type":"VEC3"},{"bufferView":45,"componentType":5126,"count":24,"max":[1,1,1],"min":[-1,-1,-1],"type":"VEC3"},{"bufferView":46,"componentType":5126,"count":24,"max":[0.375,1],"min":[0.3125,0.625],"type":"VEC2"},{"bufferView":47,"componentType":5123,"count":36,"max":[23],"min":[0],"type":"SCALAR"},{"bufferView":48,"componentType":5126,"count":10,"max":[0.5],"min":[0],"type":"SCALAR"},{"bufferView":49,"componentType":5126,"count":10,"max":[0.04361938685178757,0,0,1],"min":[-0.0032320856116712093,0,0,0.9990482330322266],"type":"VEC4"},{"bufferView":50,"componentType":5126,"count":10,"max":[0.5],"min":[0],"type":"SCALAR"},{"bufferView":51,"componentType":5126,"count":10,"max":[0,0.21875,-0.1875],"min":[0,0.21875,-0.25462964177131653],"type":"VEC3"},{"bufferView":52,"componentType":5126,"count":40,"max":[3],"min":[0],"type":"SCALAR"},{"bufferView":53,"componentType":5126,"count":40,"max":[0,0.28125,0],"min":[0,0.25,0],"type":"VEC3"},{"bufferView":54,"componentType":5126,"count":40,"max":[3],"min":[0],"type":"SCALAR"},{"bufferView":55,"componentType":5126,"count":40,"max":[0,0,0.02616797760128975,1],"min":[-0.02616797760128975,-0.0006852326332591474,0,0.9993147850036621],"type":"VEC4"},{"bufferView":56,"componentType":5126,"count":40,"max":[3],"min":[0],"type":"SCALAR"},{"bufferView":57,"componentType":5126,"count":40,"max":[0,0.0006852326332591474,0,1],"min":[-0.02616797760128975,0,-0.02616797760128975,0.9993147850036621],"type":"VEC4"},{"bufferView":58,"componentType":5126,"count":40,"max":[3],"min":[0],"type":"SCALAR"},{"bufferView":59,"componentType":5126,"count":40,"max":[0.02616797760128975,1,0.02616797760128975,0.0006852326332591474],"min":[6.123234262925839e-17,0.9993147850036621,6.123234262925839e-17,3.7493993930529855e-33],"type":"VEC4"},{"bufferView":60,"componentType":5126,"count":40,"max":[3],"min":[0],"type":"SCALAR"},{"bufferView":61,"componentType":5126,"count":40,"max":[6.123234262925839e-17,1,0.02616797760128975,3.7493993930529855e-33],"min":[-0.02616797760128975,0.9993147850036621,6.123234262925839e-17,-0.0006852326332591474],"type":"VEC4"}],"materials":[{"pbrMetallicRoughness":{"metallicFactor":0,"roughnessFactor":1,"baseColorTexture":{"index":0}},"alphaMode":"MASK","alphaCutoff":0.05,"doubleSided":true}],"textures":[{"sampler":0,"source":0,"name":"Cannonaut.png"}],"samplers":[{"magFilter":9728,"minFilter":9728,"wrapS":33071,"wrapT":33071}],"images":[{"mimeType":"image/png","uri":"data:image/png;base64,"}],"meshes":[{"primitives":[{"mode":4,"attributes":{"POSITION":0,"NORMAL":1,"TEXCOORD_0":2},"indices":3,"material":0}]},{"primitives":[{"mode":4,"attributes":{"POSITION":4,"NORMAL":5,"TEXCOORD_0":6},"indices":7,"material":0}]},{"primitives":[{"mode":4,"attributes":{"POSITION":8,"NORMAL":9,"TEXCOORD_0":10},"indices":11,"material":0}]},{"primitives":[{"mode":4,"attributes":{"POSITION":12,"NORMAL":13,"TEXCOORD_0":14},"indices":15,"material":0}]},{"primitives":[{"mode":4,"attributes":{"POSITION":16,"NORMAL":17,"TEXCOORD_0":18},"indices":19,"material":0}]},{"primitives":[{"mode":4,"attributes":{"POSITION":20,"NORMAL":21,"TEXCOORD_0":22},"indices":23,"material":0}]},{"primitives":[{"mode":4,"attributes":{"POSITION":24,"NORMAL":25,"TEXCOORD_0":26},"indices":27,"material":0}]},{"primitives":[{"mode":4,"attributes":{"POSITION":28,"NORMAL":29,"TEXCOORD_0":30},"indices":31,"material":0}]},{"primitives":[{"mode":4,"attributes":{"POSITION":32,"NORMAL":33,"TEXCOORD_0":34},"indices":35,"material":0}]},{"primitives":[{"mode":4,"attributes":{"POSITION":36,"NORMAL":37,"TEXCOORD_0":38},"indices":39,"material":0}]},{"primitives":[{"mode":4,"attributes":{"POSITION":40,"NORMAL":41,"TEXCOORD_0":42},"indices":43,"material":0}]},{"primitives":[{"mode":4,"attributes":{"POSITION":44,"NORMAL":45,"TEXCOORD_0":46},"indices":47,"material":0}]}],"animations":[{"name":"Shoot","samplers":[{"input":48,"output":49,"interpolation":"LINEAR"},{"input":50,"output":51,"interpolation":"LINEAR"}],"channels":[{"sampler":0,"target":{"node":22,"path":"rotation"}},{"sampler":1,"target":{"node":19,"path":"translation"}}]},{"name":"Idle","samplers":[{"input":52,"output":53,"interpolation":"LINEAR"},{"input":54,"output":55,"interpolation":"LINEAR"},{"input":56,"output":57,"interpolation":"LINEAR"},{"input":58,"output":59,"interpolation":"LINEAR"},{"input":60,"output":61,"interpolation":"LINEAR"}],"channels":[{"sampler":0,"target":{"node":23,"path":"translation"}},{"sampler":1,"target":{"node":4,"path":"rotation"}},{"sampler":2,"target":{"node":8,"path":"rotation"}},{"sampler":3,"target":{"node":12,"path":"rotation"}},{"sampler":4,"target":{"node":16,"path":"rotation"}}]}]}