{"asset":{"version":"2.0","generator":"Blockbench 4.6.1 glTF exporter"},"scenes":[{"nodes":[4],"name":"blockbench_export"}],"scene":0,"nodes":[{"rotation":[0.5,-0.4999999999999999,0.5,0.5000000000000001],"translation":[-2.0816681711721685e-17,0.24999999999999997,-5.204170427930421e-17],"name":"Wheel","mesh":0},{"name":"cube","mesh":1},{"name":"cube","mesh":2},{"name":"Main","children":[0,1,2]},{"children":[3]}],"bufferViews":[{"buffer":0,"byteOffset":0,"byteLength":1152,"target":34962,"byteStride":12},{"buffer":0,"byteOffset":1152,"byteLength":1152,"target":34962,"byteStride":12},{"buffer":0,"byteOffset":2304,"byteLength":768,"target":34962,"byteStride":8},{"buffer":0,"byteOffset":3072,"byteLength":288,"target":34963},{"buffer":0,"byteOffset":3360,"byteLength":48,"target":34962,"byteStride":12},{"buffer":0,"byteOffset":3408,"byteLength":48,"target":34962,"byteStride":12},{"buffer":0,"byteOffset":3456,"byteLength":32,"target":34962,"byteStride":8},{"buffer":0,"byteOffset":3488,"byteLength":12,"target":34963},{"buffer":0,"byteOffset":3500,"byteLength":288,"target":34962,"byteStride":12},{"buffer":0,"byteOffset":3788,"byteLength":288,"target":34962,"byteStride":12},{"buffer":0,"byteOffset":4076,"byteLength":192,"target":34962,"byteStride":8},{"buffer":0,"byteOffset":4268,"byteLength":72,"target":34963}],"buffers":[{"byteLength":4340,"uri":"data:application/octet-stream;base64,"}],"accessors":[{"bufferView":0,"componentType":5126,"count":96,"max":[0.28867512941360474,0.09375,0.25],"min":[-0.28867512941360474,-0.09375,-0.25],"type":"VEC3"},{"bufferView":1,"componentType":5126,"count":96,"max":[0.8660253882408142,0.8320503234863281,1],"min":[-0.8660253882408142,-0.8320503234863281,-1],"type":"VEC3"},{"bufferView":2,"componentType":5126,"count":96,"max":[1,1],"min":[0,0.7623249888420105],"type":"VEC2"},{"bufferView":3,"componentType":5123,"count":144,"max":[95],"min":[0],"type":"SCALAR"},{"bufferView":4,"componentType":5126,"count":4,"max":[0,0.28125,0.1875],"min":[0,0.21875,-0.1875],"type":"VEC3"},{"bufferView":5,"componentType":5126,"count":4,"max":[-1,0,0],"min":[-1,0,0],"type":"VEC3"},{"bufferView":6,"componentType":5126,"count":4,"max":[0.6875,0.875],"min":[0.3125,0.8125],"type":"VEC2"},{"bufferView":7,"componentType":5123,"count":6,"max":[3],"min":[0],"type":"SCALAR"},{"bufferView":8,"componentType":5126,"count":24,"max":[0.0625,0.3125,0.09375],"min":[-0.0625,0.1875,-0.09375],"type":"VEC3"},{"bufferView":9,"componentType":5126,"count":24,"max":[1,1,1],"min":[-1,-1,-1],"type":"VEC3"},{"bufferView":10,"componentType":5126,"count":24,"max":[0.8125,1],"min":[0,0.875],"type":"VEC2"},{"bufferView":11,"componentType":5123,"count":36,"max":[23],"min":[0],"type":"SCALAR"}],"materials":[{"pbrMetallicRoughness":{"metallicFactor":0,"roughnessFactor":1,"baseColorTexture":{"index":0}},"alphaMode":"MASK","alphaCutoff":0.05,"doubleSided":true}],"textures":[{"sampler":0,"source":0,"name":"Mobile Grenade.png"}],"samplers":[{"magFilter":9728,"minFilter":9728,"wrapS":33071,"wrapT":33071}],"images":[{"mimeType":"image/png","uri":"data:image/png;base64,"}],"meshes":[{"primitives":[{"mode":4,"attributes":{"POSITION":0,"NORMAL":1,"TEXCOORD_0":2},"indices":3,"material":0}]},{"primitives":[{"mode":4,"attributes":{"POSITION":4,"NORMAL":5,"TEXCOORD_0":6},"indices":7,"material":0}]},{"primitives":[{"mode":4,"attributes":{"POSITION":8,"NORMAL":9,"TEXCOORD_0":10},"indices":11,"material":0}]}]}