{"asset":{"version":"2.0","generator":"Blockbench 4.6.4 glTF exporter"},"scenes":[{"nodes":[5],"name":"blockbench_export"}],"scene":0,"nodes":[{"rotation":[0,0.3826834323650898,0,0.9238795325112867],"translation":[-0.15625,0.45468749999999947,0.15625],"name":"cube","mesh":0},{"rotation":[0,0.3826834323650898,0,0.9238795325112867],"translation":[0,0.4140624999999997,0],"name":"cube","mesh":1},{"rotation":[0,0.3826834323650898,0,0.9238795325112867],"translation":[0.15625,0.375,-0.15625],"name":"cube","mesh":2},{"name":"cube","mesh":3},{"name":"main","children":[0,1,2,3]},{"children":[4]}],"bufferViews":[{"buffer":0,"byteOffset":0,"byteLength":288,"target":34962,"byteStride":12},{"buffer":0,"byteOffset":288,"byteLength":288,"target":34962,"byteStride":12},{"buffer":0,"byteOffset":576,"byteLength":192,"target":34962,"byteStride":8},{"buffer":0,"byteOffset":768,"byteLength":60,"target":34963},{"buffer":0,"byteOffset":828,"byteLength":288,"target":34962,"byteStride":12},{"buffer":0,"byteOffset":1116,"byteLength":288,"target":34962,"byteStride":12},{"buffer":0,"byteOffset":1404,"byteLength":192,"target":34962,"byteStride":8},{"buffer":0,"byteOffset":1596,"byteLength":60,"target":34963},{"buffer":0,"byteOffset":1656,"byteLength":288,"target":34962,"byteStride":12},{"buffer":0,"byteOffset":1944,"byteLength":288,"target":34962,"byteStride":12},{"buffer":0,"byteOffset":2232,"byteLength":192,"target":34962,"byteStride":8},{"buffer":0,"byteOffset":2424,"byteLength":60,"target":34963},{"buffer":0,"byteOffset":2484,"byteLength":1056,"target":34962,"byteStride":12},{"buffer":0,"byteOffset":3540,"byteLength":1056,"target":34962,"byteStride":12},{"buffer":0,"byteOffset":4596,"byteLength":704,"target":34962,"byteStride":8},{"buffer":0,"byteOffset":5300,"byteLength":252,"target":34963}],"buffers":[{"byteLength":5552,"uri":"data:application/octet-stream;base64,"}],"accessors":[{"bufferView":0,"componentType":5126,"count":24,"max":[0.0625,0.3125,0.0625],"min":[-0.0625,5.551115123125783e-16,-0.0625],"type":"VEC3"},{"bufferView":1,"componentType":5126,"count":24,"max":[1,1,1],"min":[-1,-1,-1],"type":"VEC3"},{"bufferView":2,"componentType":5126,"count":24,"max":[1,1],"min":[0,0],"type":"VEC2"},{"bufferView":3,"componentType":5123,"count":30,"max":[23],"min":[0],"type":"SCALAR"},{"bufferView":4,"componentType":5126,"count":24,"max":[0.0625,0.25,0.0625],"min":[-0.0625,4.440892098500626e-16,-0.0625],"type":"VEC3"},{"bufferView":5,"componentType":5126,"count":24,"max":[1,1,1],"min":[-1,-1,-1],"type":"VEC3"},{"bufferView":6,"componentType":5126,"count":24,"max":[1,1],"min":[0,0],"type":"VEC2"},{"bufferView":7,"componentType":5123,"count":30,"max":[23],"min":[0],"type":"SCALAR"},{"bufferView":8,"componentType":5126,"count":24,"max":[0.0625,0.1875,0.0625],"min":[-0.0625,0,-0.0625],"type":"VEC3"},{"bufferView":9,"componentType":5126,"count":24,"max":[1,1,1],"min":[-1,-1,-1],"type":"VEC3"},{"bufferView":10,"componentType":5126,"count":24,"max":[1,1],"min":[0,0],"type":"VEC2"},{"bufferView":11,"componentType":5123,"count":30,"max":[23],"min":[0],"type":"SCALAR"},{"bufferView":12,"componentType":5126,"count":88,"max":[0.3125,0.5,0.3125],"min":[-0.3125,0,-0.3125],"type":"VEC3"},{"bufferView":13,"componentType":5126,"count":88,"max":[1,0.9701424837112427,1],"min":[-1,0,-1],"type":"VEC3"},{"bufferView":14,"componentType":5126,"count":88,"max":[1,0.5],"min":[0,0],"type":"VEC2"},{"bufferView":15,"componentType":5123,"count":126,"max":[87],"min":[0],"type":"SCALAR"}],"materials":[{"pbrMetallicRoughness":{"metallicFactor":0,"roughnessFactor":1,"baseColorTexture":{"index":0}},"alphaMode":"MASK","alphaCutoff":0.05,"doubleSided":true}],"textures":[{"sampler":0,"source":0,"name":"Factory.png"}],"samplers":[{"magFilter":9728,"minFilter":9728,"wrapS":33071,"wrapT":33071}],"images":[{"mimeType":"image/png","uri":"data:image/png;base64,"}],"meshes":[{"primitives":[{"mode":4,"attributes":{"POSITION":0,"NORMAL":1,"TEXCOORD_0":2},"indices":3,"material":0}]},{"primitives":[{"mode":4,"attributes":{"POSITION":4,"NORMAL":5,"TEXCOORD_0":6},"indices":7,"material":0}]},{"primitives":[{"mode":4,"attributes":{"POSITION":8,"NORMAL":9,"TEXCOORD_0":10},"indices":11,"material":0}]},{"primitives":[{"mode":4,"attributes":{"POSITION":12,"NORMAL":13,"TEXCOORD_0":14},"indices":15,"material":0}]}]}