{"asset":{"version":"2.0","generator":"Blockbench 4.6.4 glTF exporter"},"scenes":[{"nodes":[15],"name":"blockbench_export"}],"scene":0,"nodes":[{"rotation":[0.19509032201612825,0,0,0.9807852804032304],"translation":[0,0.21874999999999997,0.09375],"name":"Anntene","mesh":0},{"rotation":[-0.13052619222005157,0,0,0.9914448613738104],"translation":[0,0.18749999999999997,0.125],"name":"Back Foot","mesh":1},{"rotation":[-0.01703708685546585,0.12940952255126037,-0.12940952255126037,0.9829629131445341],"translation":[-0.078125,0.18749999999999997,-0.078125],"name":"Left Foot","mesh":2},{"rotation":[-0.01703708685546585,-0.12940952255126037,0.12940952255126037,0.9829629131445341],"translation":[0.078125,0.18749999999999997,-0.078125],"name":"Right Foot","mesh":3},{"translation":[0.03125,0.21874999999999997,0],"name":"Head","mesh":4},{"translation":[0,-0.06250000000000008,0],"name":"Wing","mesh":5},{"rotation":[0,0.25881904510252074,0,0.9659258262890683],"translation":[-0.375,0.25000000000000006,-9.912705577010326e-18],"name":"Left Fan Cover","mesh":6},{"translation":[-0.375,0.37500000000000006,-7.93016446160826e-18],"name":"Fan","mesh":7},{"translation":[-0.375,0.37500000000000006,-7.93016446160826e-18],"name":"Fan","mesh":8},{"translation":[0,-0.25000000000000006,0],"name":"LeftFan","children":[6,7,8]},{"rotation":[0,0.25881904510252074,0,0.9659258262890683],"translation":[0,0.06250000000000008,0],"name":"Right Fan Cover","mesh":9},{"translation":[-0.75,0.18750000000000008,1.982541115402066e-18],"name":"Fan","mesh":10},{"translation":[-0.75,0.18750000000000008,1.982541115402066e-18],"name":"Fan","mesh":11},{"translation":[0.375,-0.06250000000000008,-9.912705577010326e-18],"name":"RightFan","children":[10,11,12]},{"translation":[0,0.28125000000000006,0],"name":"Wings","children":[5,9,13]},{"children":[0,1,2,3,4,14]}],"bufferViews":[{"buffer":0,"byteOffset":0,"byteLength":48,"target":34962,"byteStride":12},{"buffer":0,"byteOffset":48,"byteLength":48,"target":34962,"byteStride":12},{"buffer":0,"byteOffset":96,"byteLength":32,"target":34962,"byteStride":8},{"buffer":0,"byteOffset":128,"byteLength":12,"target":34963},{"buffer":0,"byteOffset":140,"byteLength":48,"target":34962,"byteStride":12},{"buffer":0,"byteOffset":188,"byteLength":48,"target":34962,"byteStride":12},{"buffer":0,"byteOffset":236,"byteLength":32,"target":34962,"byteStride":8},{"buffer":0,"byteOffset":268,"byteLength":12,"target":34963},{"buffer":0,"byteOffset":280,"byteLength":48,"target":34962,"byteStride":12},{"buffer":0,"byteOffset":328,"byteLength":48,"target":34962,"byteStride":12},{"buffer":0,"byteOffset":376,"byteLength":32,"target":34962,"byteStride":8},{"buffer":0,"byteOffset":408,"byteLength":12,"target":34963},{"buffer":0,"byteOffset":420,"byteLength":48,"target":34962,"byteStride":12},{"buffer":0,"byteOffset":468,"byteLength":48,"target":34962,"byteStride":12},{"buffer":0,"byteOffset":516,"byteLength":32,"target":34962,"byteStride":8},{"buffer":0,"byteOffset":548,"byteLength":12,"target":34963},{"buffer":0,"byteOffset":560,"byteLength":288,"target":34962,"byteStride":12},{"buffer":0,"byteOffset":848,"byteLength":288,"target":34962,"byteStride":12},{"buffer":0,"byteOffset":1136,"byteLength":192,"target":34962,"byteStride":8},{"buffer":0,"byteOffset":1328,"byteLength":72,"target":34963},{"buffer":0,"byteOffset":1400,"byteLength":192,"target":34962,"byteStride":12},{"buffer":0,"byteOffset":1592,"byteLength":192,"target":34962,"byteStride":12},{"buffer":0,"byteOffset":1784,"byteLength":128,"target":34962,"byteStride":8},{"buffer":0,"byteOffset":1912,"byteLength":48,"target":34963},{"buffer":0,"byteOffset":1960,"byteLength":720,"target":34962,"byteStride":12},{"buffer":0,"byteOffset":2680,"byteLength":720,"target":34962,"byteStride":12},{"buffer":0,"byteOffset":3400,"byteLength":480,"target":34962,"byteStride":8},{"buffer":0,"byteOffset":3880,"byteLength":144,"target":34963},{"buffer":0,"byteOffset":4024,"byteLength":216,"target":34962,"byteStride":12},{"buffer":0,"byteOffset":4240,"byteLength":216,"target":34962,"byteStride":12},{"buffer":0,"byteOffset":4456,"byteLength":144,"target":34962,"byteStride":8},{"buffer":0,"byteOffset":4600,"byteLength":36,"target":34963},{"buffer":0,"byteOffset":4636,"byteLength":216,"target":34962,"byteStride":12},{"buffer":0,"byteOffset":4852,"byteLength":216,"target":34962,"byteStride":12},{"buffer":0,"byteOffset":5068,"byteLength":144,"target":34962,"byteStride":8},{"buffer":0,"byteOffset":5212,"byteLength":36,"target":34963},{"buffer":0,"byteOffset":5248,"byteLength":720,"target":34962,"byteStride":12},{"buffer":0,"byteOffset":5968,"byteLength":720,"target":34962,"byteStride":12},{"buffer":0,"byteOffset":6688,"byteLength":480,"target":34962,"byteStride":8},{"buffer":0,"byteOffset":7168,"byteLength":144,"target":34963},{"buffer":0,"byteOffset":7312,"byteLength":216,"target":34962,"byteStride":12},{"buffer":0,"byteOffset":7528,"byteLength":216,"target":34962,"byteStride":12},{"buffer":0,"byteOffset":7744,"byteLength":144,"target":34962,"byteStride":8},{"buffer":0,"byteOffset":7888,"byteLength":36,"target":34963},{"buffer":0,"byteOffset":7924,"byteLength":216,"target":34962,"byteStride":12},{"buffer":0,"byteOffset":8140,"byteLength":216,"target":34962,"byteStride":12},{"buffer":0,"byteOffset":8356,"byteLength":144,"target":34962,"byteStride":8},{"buffer":0,"byteOffset":8500,"byteLength":36,"target":34963}],"buffers":[{"byteLength":8536,"uri":"data:application/octet-stream;base64,"}],"accessors":[{"bufferView":0,"componentType":5126,"count":4,"max":[0,0.3125,0.03125],"min":[0,0,-0.03125],"type":"VEC3"},{"bufferView":1,"componentType":5126,"count":4,"max":[-1,0,0],"min":[-1,0,0],"type":"VEC3"},{"bufferView":2,"componentType":5126,"count":4,"max":[0.3125,0.375],"min":[0.25,0],"type":"VEC2"},{"bufferView":3,"componentType":5123,"count":6,"max":[3],"min":[0],"type":"SCALAR"},{"bufferView":4,"componentType":5126,"count":4,"max":[0,0,0.046875],"min":[0,-0.1875,-0.046875],"type":"VEC3"},{"bufferView":5,"componentType":5126,"count":4,"max":[-1,0,0],"min":[-1,0,0],"type":"VEC3"},{"bufferView":6,"componentType":5126,"count":4,"max":[0.75,0.375],"min":[0.5625,0],"type":"VEC2"},{"bufferView":7,"componentType":5123,"count":6,"max":[3],"min":[0],"type":"SCALAR"},{"bufferView":8,"componentType":5126,"count":4,"max":[0,0,0.046875],"min":[0,-0.1875,-0.046875],"type":"VEC3"},{"bufferView":9,"componentType":5126,"count":4,"max":[-1,0,0],"min":[-1,0,0],"type":"VEC3"},{"bufferView":10,"componentType":5126,"count":4,"max":[0.75,0.375],"min":[0.5625,0],"type":"VEC2"},{"bufferView":11,"componentType":5123,"count":6,"max":[3],"min":[0],"type":"SCALAR"},{"bufferView":12,"componentType":5126,"count":4,"max":[0,0,0.046875],"min":[0,-0.1875,-0.046875],"type":"VEC3"},{"bufferView":13,"componentType":5126,"count":4,"max":[-1,0,0],"min":[-1,0,0],"type":"VEC3"},{"bufferView":14,"componentType":5126,"count":4,"max":[0.75,0.375],"min":[0.5625,0],"type":"VEC2"},{"bufferView":15,"componentType":5123,"count":6,"max":[3],"min":[0],"type":"SCALAR"},{"bufferView":16,"componentType":5126,"count":24,"max":[0.0625,0.1875,0.125],"min":[-0.125,-0.1875,-0.125],"type":"VEC3"},{"bufferView":17,"componentType":5126,"count":24,"max":[1,0.9701424837112427,1],"min":[-1,-0.9701424837112427,-1],"type":"VEC3"},{"bufferView":18,"componentType":5126,"count":24,"max":[0.625,1],"min":[0,0.375],"type":"VEC2"},{"bufferView":19,"componentType":5123,"count":36,"max":[23],"min":[0],"type":"SCALAR"},{"bufferView":20,"componentType":5126,"count":16,"max":[0.28125,0.125,0.03125],"min":[-0.28125,0,-0.03125],"type":"VEC3"},{"bufferView":21,"componentType":5126,"count":16,"max":[0,1,1],"min":[0,-1,-1],"type":"VEC3"},{"bufferView":22,"componentType":5126,"count":16,"max":[0.5625,0.375],"min":[0,0],"type":"VEC2"},{"bufferView":23,"componentType":5123,"count":24,"max":[15],"min":[0],"type":"SCALAR"},{"bufferView":24,"componentType":5126,"count":60,"max":[0.10825317353010178,0.09375,0.09375],"min":[-0.10825317353010178,-0.09375,-0.09375],"type":"VEC3"},{"bufferView":25,"componentType":5126,"count":60,"max":[0.8660253882408142,1,1],"min":[-0.8660253882408142,-1,-1],"type":"VEC3"},{"bufferView":26,"componentType":5126,"count":60,"max":[0.625,0.6250023245811462],"min":[0.3749968707561493,0.375],"type":"VEC2"},{"bufferView":27,"componentType":5123,"count":72,"max":[59],"min":[0],"type":"SCALAR"},{"bufferView":28,"componentType":5126,"count":18,"max":[0.10825317353010178,-0.0625,0.09375],"min":[-0.10825317353010178,-0.0625,-0.09375],"type":"VEC3"},{"bufferView":29,"componentType":5126,"count":18,"max":[0,1,0],"min":[0,1,0],"type":"VEC3"},{"bufferView":30,"componentType":5126,"count":18,"max":[0.75,0.75],"min":[0.6249992251396179,0.375],"type":"VEC2"},{"bufferView":31,"componentType":5123,"count":18,"max":[17],"min":[0],"type":"SCALAR"},{"bufferView":32,"componentType":5126,"count":18,"max":[0.10825317353010178,-0.1875,0.09375],"min":[-0.10825317353010178,-0.1875,-0.09375],"type":"VEC3"},{"bufferView":33,"componentType":5126,"count":18,"max":[0,-1,0],"min":[0,-1,0],"type":"VEC3"},{"bufferView":34,"componentType":5126,"count":18,"max":[0.75,0.75],"min":[0.6249992251396179,0.375],"type":"VEC2"},{"bufferView":35,"componentType":5123,"count":18,"max":[17],"min":[0],"type":"SCALAR"},{"bufferView":36,"componentType":5126,"count":60,"max":[0.10825317353010178,0.09375,0.09375],"min":[-0.10825317353010178,-0.09375,-0.09375],"type":"VEC3"},{"bufferView":37,"componentType":5126,"count":60,"max":[0.8660253882408142,1,1],"min":[-0.8660253882408142,-1,-1],"type":"VEC3"},{"bufferView":38,"componentType":5126,"count":60,"max":[0.625,0.6250023245811462],"min":[0.375,0.375],"type":"VEC2"},{"bufferView":39,"componentType":5123,"count":72,"max":[59],"min":[0],"type":"SCALAR"},{"bufferView":40,"componentType":5126,"count":18,"max":[0.8582531809806824,-0.0625,0.09375],"min":[0.6417468190193176,-0.0625,-0.09375],"type":"VEC3"},{"bufferView":41,"componentType":5126,"count":18,"max":[0,1,0],"min":[0,1,0],"type":"VEC3"},{"bufferView":42,"componentType":5126,"count":18,"max":[0.75,0.75],"min":[0.6249992251396179,0.375],"type":"VEC2"},{"bufferView":43,"componentType":5123,"count":18,"max":[17],"min":[0],"type":"SCALAR"},{"bufferView":44,"componentType":5126,"count":18,"max":[0.8582531809806824,-0.1875,0.09375],"min":[0.6417468190193176,-0.1875,-0.09375],"type":"VEC3"},{"bufferView":45,"componentType":5126,"count":18,"max":[0,-1,0],"min":[0,-1,0],"type":"VEC3"},{"bufferView":46,"componentType":5126,"count":18,"max":[0.75,0.75],"min":[0.6249992251396179,0.375],"type":"VEC2"},{"bufferView":47,"componentType":5123,"count":18,"max":[17],"min":[0],"type":"SCALAR"}],"materials":[{"pbrMetallicRoughness":{"metallicFactor":0,"roughnessFactor":1,"baseColorTexture":{"index":0}},"alphaMode":"MASK","alphaCutoff":0.05,"doubleSided":true}],"textures":[{"sampler":0,"source":0,"name":"Transport Drone.png"}],"samplers":[{"magFilter":9728,"minFilter":9728,"wrapS":33071,"wrapT":33071}],"images":[{"mimeType":"image/png","uri":"data:image/png;base64,"}],"meshes":[{"primitives":[{"mode":4,"attributes":{"POSITION":0,"NORMAL":1,"TEXCOORD_0":2},"indices":3,"material":0}]},{"primitives":[{"mode":4,"attributes":{"POSITION":4,"NORMAL":5,"TEXCOORD_0":6},"indices":7,"material":0}]},{"primitives":[{"mode":4,"attributes":{"POSITION":8,"NORMAL":9,"TEXCOORD_0":10},"indices":11,"material":0}]},{"primitives":[{"mode":4,"attributes":{"POSITION":12,"NORMAL":13,"TEXCOORD_0":14},"indices":15,"material":0}]},{"primitives":[{"mode":4,"attributes":{"POSITION":16,"NORMAL":17,"TEXCOORD_0":18},"indices":19,"material":0}]},{"primitives":[{"mode":4,"attributes":{"POSITION":20,"NORMAL":21,"TEXCOORD_0":22},"indices":23,"material":0}]},{"primitives":[{"mode":4,"attributes":{"POSITION":24,"NORMAL":25,"TEXCOORD_0":26},"indices":27,"material":0}]},{"primitives":[{"mode":4,"attributes":{"POSITION":28,"NORMAL":29,"TEXCOORD_0":30},"indices":31,"material":0}]},{"primitives":[{"mode":4,"attributes":{"POSITION":32,"NORMAL":33,"TEXCOORD_0":34},"indices":35,"material":0}]},{"primitives":[{"mode":4,"attributes":{"POSITION":36,"NORMAL":37,"TEXCOORD_0":38},"indices":39,"material":0}]},{"primitives":[{"mode":4,"attributes":{"POSITION":40,"NORMAL":41,"TEXCOORD_0":42},"indices":43,"material":0}]},{"primitives":[{"mode":4,"attributes":{"POSITION":44,"NORMAL":45,"TEXCOORD_0":46},"indices":47,"material":0}]}]}