{"asset":{"version":"2.0","generator":"Blockbench 4.6.1 glTF exporter"},"scenes":[{"nodes":[13],"name":"blockbench_export"}],"scene":0,"nodes":[{"translation":[0,-0.25,0.125],"name":"Head","mesh":0},{"translation":[0,-0.109375,0.3125],"name":"Latch","mesh":1},{"rotation":[0.5,-0.4999999999999999,0.5,0.5000000000000001],"name":"cylinder","mesh":2},{"translation":[2.2055769908847975e-17,0.06250000000000003,0.046875],"name":"FrontWheel","children":[2]},{"rotation":[0.5,-0.4999999999999999,0.5,0.5000000000000001],"translation":[0.0625,-0.1171875,0.125],"name":"Track Cover","mesh":3},{"translation":[0.1875,-0.1640625,-0.21875],"name":"Track","mesh":4},{"translation":[-0.1875,0.1640625,0.21875],"name":"LeftTrack","children":[4,5]},{"rotation":[0.5,-0.4999999999999999,0.5,0.5000000000000001],"translation":[0.0625,-0.1171875,0.125],"name":"Track Cover","mesh":5},{"translation":[-0.1875,-0.1640625,-0.21875],"name":"Track","mesh":6},{"translation":[0.1875,0.1640625,0.21875],"name":"RightTrack","children":[7,8]},{"translation":[0,-0.1875,-0.3125],"name":"Tracks","children":[3,6,9]},{"translation":[0,0.1875,0],"name":"Head","children":[0,1,10]},{"name":"MainBody","children":[11]},{"children":[12]}],"bufferViews":[{"buffer":0,"byteOffset":0,"byteLength":516,"target":34962,"byteStride":12},{"buffer":0,"byteOffset":516,"byteLength":516,"target":34962,"byteStride":12},{"buffer":0,"byteOffset":1032,"byteLength":344,"target":34962,"byteStride":8},{"buffer":0,"byteOffset":1376,"byteLength":128,"target":34963},{"buffer":0,"byteOffset":1504,"byteLength":48,"target":34962,"byteStride":12},{"buffer":0,"byteOffset":1552,"byteLength":48,"target":34962,"byteStride":12},{"buffer":0,"byteOffset":1600,"byteLength":32,"target":34962,"byteStride":8},{"buffer":0,"byteOffset":1632,"byteLength":12,"target":34963},{"buffer":0,"byteOffset":1644,"byteLength":720,"target":34962,"byteStride":12},{"buffer":0,"byteOffset":2364,"byteLength":720,"target":34962,"byteStride":12},{"buffer":0,"byteOffset":3084,"byteLength":480,"target":34962,"byteStride":8},{"buffer":0,"byteOffset":3564,"byteLength":144,"target":34963},{"buffer":0,"byteOffset":3708,"byteLength":288,"target":34962,"byteStride":12},{"buffer":0,"byteOffset":3996,"byteLength":288,"target":34962,"byteStride":12},{"buffer":0,"byteOffset":4284,"byteLength":192,"target":34962,"byteStride":8},{"buffer":0,"byteOffset":4476,"byteLength":72,"target":34963},{"buffer":0,"byteOffset":4548,"byteLength":288,"target":34962,"byteStride":12},{"buffer":0,"byteOffset":4836,"byteLength":288,"target":34962,"byteStride":12},{"buffer":0,"byteOffset":5124,"byteLength":192,"target":34962,"byteStride":8},{"buffer":0,"byteOffset":5316,"byteLength":60,"target":34963},{"buffer":0,"byteOffset":5376,"byteLength":288,"target":34962,"byteStride":12},{"buffer":0,"byteOffset":5664,"byteLength":288,"target":34962,"byteStride":12},{"buffer":0,"byteOffset":5952,"byteLength":192,"target":34962,"byteStride":8},{"buffer":0,"byteOffset":6144,"byteLength":72,"target":34963},{"buffer":0,"byteOffset":6216,"byteLength":288,"target":34962,"byteStride":12},{"buffer":0,"byteOffset":6504,"byteLength":288,"target":34962,"byteStride":12},{"buffer":0,"byteOffset":6792,"byteLength":192,"target":34962,"byteStride":8},{"buffer":0,"byteOffset":6984,"byteLength":60,"target":34963},{"buffer":0,"byteOffset":7044,"byteLength":8},{"buffer":0,"byteOffset":7052,"byteLength":32},{"buffer":0,"byteOffset":7084,"byteLength":12},{"buffer":0,"byteOffset":7096,"byteLength":36},{"buffer":0,"byteOffset":7132,"byteLength":12},{"buffer":0,"byteOffset":7144,"byteLength":36}],"buffers":[{"byteLength":7180,"uri":"data:application/octet-stream;base64,"}],"accessors":[{"bufferView":0,"componentType":5126,"count":43,"max":[0.1875,0.5,0.140625],"min":[-0.1875,0.125,-0.484375],"type":"VEC3"},{"bufferView":1,"componentType":5126,"count":43,"max":[1,1,1],"min":[-1,-1,-1],"type":"VEC3"},{"bufferView":2,"componentType":5126,"count":43,"max":[0.6875,1],"min":[0,0.4375],"type":"VEC2"},{"bufferView":3,"componentType":5123,"count":63,"max":[42],"min":[0],"type":"SCALAR"},{"bufferView":4,"componentType":5126,"count":4,"max":[0.0625,0,0.07500000298023224],"min":[-0.0625,0,-0.05000000074505806],"type":"VEC3"},{"bufferView":5,"componentType":5126,"count":4,"max":[0,1,0],"min":[0,1,0],"type":"VEC3"},{"bufferView":6,"componentType":5126,"count":4,"max":[0.75,1],"min":[0.6875,0.9375],"type":"VEC2"},{"bufferView":7,"componentType":5123,"count":6,"max":[3],"min":[0],"type":"SCALAR"},{"bufferView":8,"componentType":5126,"count":60,"max":[0.07216878235340118,0.03125,0.0625],"min":[-0.07216878235340118,-0.03125,-0.0625],"type":"VEC3"},{"bufferView":9,"componentType":5126,"count":60,"max":[0.8660253882408142,1,1],"min":[-0.8660253882408142,-1,-1],"type":"VEC3"},{"bufferView":10,"componentType":5126,"count":60,"max":[0.90625,0.75],"min":[0.84375,0.625],"type":"VEC2"},{"bufferView":11,"componentType":5123,"count":72,"max":[59],"min":[0],"type":"SCALAR"},{"bufferView":12,"componentType":5126,"count":24,"max":[0.21650634706020355,0.125,1.3257190590162872e-17],"min":[-0.21650634706020355,0,-0.1875],"type":"VEC3"},{"bufferView":13,"componentType":5126,"count":24,"max":[0.8660253882408142,1,1],"min":[-0.8660253882408142,-1,-1],"type":"VEC3"},{"bufferView":14,"componentType":5126,"count":24,"max":[0.84375,0.78125],"min":[0.5,0.5],"type":"VEC2"},{"bufferView":15,"componentType":5123,"count":36,"max":[23],"min":[0],"type":"SCALAR"},{"bufferView":16,"componentType":5126,"count":24,"max":[-0.140625,0.09375,0.515625],"min":[-0.234375,0,0.171875],"type":"VEC3"},{"bufferView":17,"componentType":5126,"count":24,"max":[1,1,1],"min":[-1,-1,-1],"type":"VEC3"},{"bufferView":18,"componentType":5126,"count":24,"max":[1,1],"min":[0,0],"type":"VEC2"},{"bufferView":19,"componentType":5123,"count":30,"max":[23],"min":[0],"type":"SCALAR"},{"bufferView":20,"componentType":5126,"count":24,"max":[0.21650634706020355,0.125,1.3257190590162872e-17],"min":[-0.21650634706020355,0,-0.1875],"type":"VEC3"},{"bufferView":21,"componentType":5126,"count":24,"max":[0.8660253882408142,1,1],"min":[-0.8660253882408142,-1,-1],"type":"VEC3"},{"bufferView":22,"componentType":5126,"count":24,"max":[0.84375,0.78125],"min":[0.5,0.5],"type":"VEC2"},{"bufferView":23,"componentType":5123,"count":36,"max":[23],"min":[0],"type":"SCALAR"},{"bufferView":24,"componentType":5126,"count":24,"max":[0.234375,0.09375,0.515625],"min":[0.140625,0,0.171875],"type":"VEC3"},{"bufferView":25,"componentType":5126,"count":24,"max":[1,1,1],"min":[-1,-1,-1],"type":"VEC3"},{"bufferView":26,"componentType":5126,"count":24,"max":[1,1],"min":[0,0],"type":"VEC2"},{"bufferView":27,"componentType":5123,"count":30,"max":[23],"min":[0],"type":"SCALAR"},{"bufferView":28,"componentType":5126,"count":2,"max":[0.25],"min":[0],"type":"SCALAR"},{"bufferView":29,"componentType":5126,"count":2,"max":[0,0,0,1],"min":[-0.8660253882408142,0,0,0.5],"type":"VEC4"},{"bufferView":30,"componentType":5126,"count":3,"max":[0.0833333358168602],"min":[0],"type":"SCALAR"},{"bufferView":31,"componentType":5126,"count":3,"max":[-0.1875,0.16718749701976776,0.21875],"min":[-0.1875,0.1640625,0.21875],"type":"VEC3"},{"bufferView":32,"componentType":5126,"count":3,"max":[0.0833333358168602],"min":[0],"type":"SCALAR"},{"bufferView":33,"componentType":5126,"count":3,"max":[0.1875,0.16718749701976776,0.21875],"min":[0.1875,0.1640625,0.21875],"type":"VEC3"}],"materials":[{"pbrMetallicRoughness":{"metallicFactor":0,"roughnessFactor":1,"baseColorTexture":{"index":0}},"alphaMode":"MASK","alphaCutoff":0.05,"doubleSided":true}],"textures":[{"sampler":0,"source":0,"name":"Armored Carrier.png"}],"samplers":[{"magFilter":9728,"minFilter":9728,"wrapS":33071,"wrapT":33071}],"images":[{"mimeType":"image/png","uri":"data:image/png;base64,"}],"meshes":[{"primitives":[{"mode":4,"attributes":{"POSITION":0,"NORMAL":1,"TEXCOORD_0":2},"indices":3,"material":0}]},{"primitives":[{"mode":4,"attributes":{"POSITION":4,"NORMAL":5,"TEXCOORD_0":6},"indices":7,"material":0}]},{"primitives":[{"mode":4,"attributes":{"POSITION":8,"NORMAL":9,"TEXCOORD_0":10},"indices":11,"material":0}]},{"primitives":[{"mode":4,"attributes":{"POSITION":12,"NORMAL":13,"TEXCOORD_0":14},"indices":15,"material":0}]},{"primitives":[{"mode":4,"attributes":{"POSITION":16,"NORMAL":17,"TEXCOORD_0":18},"indices":19,"material":0}]},{"primitives":[{"mode":4,"attributes":{"POSITION":20,"NORMAL":21,"TEXCOORD_0":22},"indices":23,"material":0}]},{"primitives":[{"mode":4,"attributes":{"POSITION":24,"NORMAL":25,"TEXCOORD_0":26},"indices":27,"material":0}]}],"animations":[{"name":"Forward Drive","samplers":[{"input":28,"output":29,"interpolation":"LINEAR"}],"channels":[{"sampler":0,"target":{"node":3,"path":"rotation"}}]},{"name":"Track Move","samplers":[{"input":30,"output":31,"interpolation":"LINEAR"},{"input":32,"output":33,"interpolation":"LINEAR"}],"channels":[{"sampler":0,"target":{"node":6,"path":"translation"}},{"sampler":1,"target":{"node":9,"path":"translation"}}]}]}